<svg width="144" height="144" viewBox="0 0 144 144" fill="none" xmlns="http://www.w3.org/2000/svg">
<path d="M4 85.2344C4 67.6913 18.2215 53.4697 35.7647 53.4697C53.3079 53.4697 67.5294 67.6913 67.5294 85.2344V102.882C67.5294 110.678 61.2087 116.999 53.4118 116.999H35.7647C18.2215 116.999 4 102.778 4 85.2344Z" fill="url(#paint0_linear_3103_415)"/>
<path d="M75.4668 42.8824C75.4668 34.1108 82.5776 27 91.3491 27C100.121 27 107.232 34.1108 107.232 42.8823V45.0207C107.232 49.2217 109.914 52.9537 113.896 54.2929L118.408 55.8106C130.71 59.9482 138.996 71.478 138.996 84.4569V85.427C138.996 102.864 124.861 117 107.423 117H89.5844C81.7875 117 75.4668 110.679 75.4668 102.882V42.8824Z" fill="url(#paint1_linear_3103_415)"/>
<path d="M134.107 38.4545C133.027 38.4545 132.046 38.2079 131.162 37.7146C130.298 37.2016 129.611 36.5109 129.101 35.6427C128.61 34.7745 128.365 33.7977 128.365 32.7125C128.365 31.6272 128.62 30.6603 129.13 29.8118C129.641 28.9436 130.328 28.2629 131.192 27.7696C132.055 27.2565 133.027 27 134.107 27C135.186 27 136.158 27.2565 137.022 27.7696C137.886 28.2629 138.563 28.9436 139.054 29.8118C139.564 30.6603 139.819 31.6272 139.819 32.7125C139.819 33.7977 139.564 34.7745 139.054 35.6427C138.563 36.5109 137.886 37.2016 137.022 37.7146C136.178 38.2079 135.206 38.4545 134.107 38.4545ZM134.107 37.6258C135.029 37.6258 135.854 37.4186 136.58 37.0042C137.326 36.5701 137.905 35.9781 138.318 35.2283C138.749 34.4785 138.965 33.6399 138.965 32.7125C138.965 31.7851 138.749 30.9563 138.318 30.2262C137.905 29.4764 137.326 28.8943 136.58 28.4799C135.854 28.0458 135.029 27.8288 134.107 27.8288C133.184 27.8288 132.35 28.0458 131.604 28.4799C130.877 28.8943 130.298 29.4764 129.866 30.2262C129.454 30.9563 129.248 31.7851 129.248 32.7125C129.248 33.6399 129.454 34.4785 129.866 35.2283C130.298 35.9781 130.877 36.5701 131.604 37.0042C132.35 37.4186 133.184 37.6258 134.107 37.6258ZM132.899 35.8499H131.987V29.4567H134.283C134.97 29.4567 135.52 29.6342 135.932 29.9894C136.345 30.3249 136.551 30.7984 136.551 31.4102C136.551 31.8245 136.443 32.1896 136.227 32.5053C136.011 32.821 135.677 33.0578 135.226 33.2157L136.669 35.8499H135.638L134.342 33.4228H132.899V35.8499ZM135.579 31.4398C135.579 30.6899 135.137 30.315 134.254 30.315H132.899V32.5645H134.254C134.666 32.5645 134.99 32.4757 135.226 32.2981C135.461 32.1008 135.579 31.8147 135.579 31.4398Z" fill="url(#paint2_linear_3103_415)"/>
<defs>
<linearGradient id="paint0_linear_3103_415" x1="72" y1="27" x2="72" y2="117" gradientUnits="userSpaceOnUse">
<stop stop-color="#D743C8"/>
<stop offset="1" stop-color="#7435DB"/>
</linearGradient>
<linearGradient id="paint1_linear_3103_415" x1="72" y1="27" x2="72" y2="117" gradientUnits="userSpaceOnUse">
<stop stop-color="#D743C8"/>
<stop offset="1" stop-color="#7435DB"/>
</linearGradient>
<linearGradient id="paint2_linear_3103_415" x1="72" y1="27" x2="72" y2="117" gradientUnits="userSpaceOnUse">
<stop stop-color="#D743C8"/>
<stop offset="1" stop-color="#7435DB"/>
</linearGradient>
</defs>
</svg>
