<svg width="40" height="40" viewBox="0 0 40 40" fill="none" xmlns="http://www.w3.org/2000/svg">
<path d="M32.5 5H28.75V3.75C28.75 3.41848 28.6183 3.10054 28.3839 2.86612C28.1495 2.6317 27.8315 2.5 27.5 2.5C27.1685 2.5 26.8505 2.6317 26.6161 2.86612C26.3817 3.10054 26.25 3.41848 26.25 3.75V5H13.75V3.75C13.75 3.41848 13.6183 3.10054 13.3839 2.86612C13.1495 2.6317 12.8315 2.5 12.5 2.5C12.1685 2.5 11.8505 2.6317 11.6161 2.86612C11.3817 3.10054 11.25 3.41848 11.25 3.75V5H7.5C6.83696 5 6.20107 5.26339 5.73223 5.73223C5.26339 6.20107 5 6.83696 5 7.5V32.5C5 33.163 5.26339 33.7989 5.73223 34.2678C6.20107 34.7366 6.83696 35 7.5 35H32.5C33.163 35 33.7989 34.7366 34.2678 34.2678C34.7366 33.7989 35 33.163 35 32.5V7.5C35 6.83696 34.7366 6.20107 34.2678 5.73223C33.7989 5.26339 33.163 5 32.5 5ZM11.25 7.5V8.75C11.25 9.08152 11.3817 9.39946 11.6161 9.63388C11.8505 9.8683 12.1685 10 12.5 10C12.8315 10 13.1495 9.8683 13.3839 9.63388C13.6183 9.39946 13.75 9.08152 13.75 8.75V7.5H26.25V8.75C26.25 9.08152 26.3817 9.39946 26.6161 9.63388C26.8505 9.8683 27.1685 10 27.5 10C27.8315 10 28.1495 9.8683 28.3839 9.63388C28.6183 9.39946 28.75 9.08152 28.75 8.75V7.5H32.5V12.5H7.5V7.5H11.25ZM32.5 32.5H7.5V15H32.5V32.5Z" fill="#7a7b9f"/>
</svg>
