<svg width="40" height="40" viewBox="0 0 40 40" fill="none" xmlns="http://www.w3.org/2000/svg">
<path d="M33.75 16.2501H15.9515L32.8125 11.7985C32.9721 11.7565 33.1218 11.6832 33.2529 11.583C33.3841 11.4828 33.4941 11.3576 33.5766 11.2147C33.6591 11.0717 33.7125 10.9139 33.7337 10.7502C33.7548 10.5865 33.7434 10.4202 33.7 10.261L32.425 5.57351C32.2495 4.94287 31.8326 4.40674 31.2647 4.08124C30.6968 3.75574 30.0235 3.66708 29.3906 3.83445L5.5953 10.1157C5.27847 10.1979 4.98123 10.3426 4.72098 10.5411C4.46073 10.7396 4.24271 10.9881 4.07967 11.272C3.91572 11.5523 3.8098 11.8628 3.7682 12.1849C3.72659 12.507 3.75015 12.8341 3.83748 13.147L4.99998 17.4313C4.99998 17.4532 4.99998 17.4766 4.99998 17.5001V31.2501C4.99998 31.9131 5.26338 32.549 5.73222 33.0178C6.20106 33.4867 6.83694 33.7501 7.49998 33.7501H32.5C33.163 33.7501 33.7989 33.4867 34.2678 33.0178C34.7366 32.549 35 31.9131 35 31.2501V17.5001C35 17.1686 34.8683 16.8506 34.6339 16.6162C34.3994 16.3818 34.0815 16.2501 33.75 16.2501ZM30.025 6.25008L30.9625 9.69851L27.4281 10.636L23.0344 8.09851L30.025 6.25008ZM19.6047 9.00008L23.9984 11.5376L18.2265 13.061L13.8328 10.5266L19.6047 9.00008ZM7.19842 15.972L6.26092 12.522L10.4015 11.4282L14.7953 13.9688L7.19842 15.972ZM32.5 31.2501H7.49998V18.7501H32.5V31.2501Z" fill="white"/>
</svg>
