<svg width="40" height="40" viewBox="0 0 40 40" fill="none" xmlns="http://www.w3.org/2000/svg">
<path d="M35.8844 34.1157L28.0609 26.2939C30.3285 23.5715 31.4592 20.0798 31.2179 16.545C30.9765 13.0102 29.3817 9.70458 26.7652 7.31569C24.1487 4.92681 20.7119 3.63863 17.1698 3.71913C13.6278 3.79963 10.2531 5.24261 7.74777 7.7479C5.24249 10.2532 3.79951 13.6279 3.71901 17.17C3.63851 20.7121 4.92669 24.1488 7.31557 26.7653C9.70445 29.3818 13.0101 30.9767 16.5449 31.218C20.0797 31.4593 23.5714 30.3286 26.2937 28.0611L34.1156 35.8845C34.2318 36.0006 34.3696 36.0928 34.5214 36.1556C34.6731 36.2185 34.8358 36.2508 35 36.2508C35.1642 36.2508 35.3269 36.2185 35.4786 36.1556C35.6304 36.0928 35.7682 36.0006 35.8844 35.8845C36.0005 35.7684 36.0926 35.6305 36.1555 35.4787C36.2183 35.327 36.2507 35.1644 36.2507 35.0001C36.2507 34.8359 36.2183 34.6732 36.1555 34.5215C36.0926 34.3698 36.0005 34.2319 35.8844 34.1157ZM6.24999 17.5001C6.24999 15.2751 6.90979 13.1 8.14596 11.2499C9.38212 9.39989 11.1391 7.95795 13.1948 7.10647C15.2505 6.25498 17.5125 6.03219 19.6948 6.46628C21.877 6.90036 23.8816 7.97182 25.4549 9.54516C27.0283 11.1185 28.0997 13.1231 28.5338 15.3053C28.9679 17.4876 28.7451 19.7496 27.8936 21.8053C27.0422 23.861 25.6002 25.618 23.7502 26.8541C21.9001 28.0903 19.725 28.7501 17.5 28.7501C14.5173 28.7468 11.6578 27.5605 9.54869 25.4514C7.43963 23.3423 6.2533 20.4828 6.24999 17.5001Z" fill="#7A7B9F"/>
</svg>
