<svg width="40" height="40" viewBox="0 0 40 40" fill="none" xmlns="http://www.w3.org/2000/svg">
<path d="M7.5 8.75V31.25C7.5 31.5815 7.3683 31.8995 7.13388 32.1339C6.89946 32.3683 6.58152 32.5 6.25 32.5C5.91848 32.5 5.60054 32.3683 5.36612 32.1339C5.1317 31.8995 5 31.5815 5 31.25V8.75C5 8.41848 5.1317 8.10054 5.36612 7.86612C5.60054 7.6317 5.91848 7.5 6.25 7.5C6.58152 7.5 6.89946 7.6317 7.13388 7.86612C7.3683 8.10054 7.5 8.41848 7.5 8.75ZM21.875 17.2656L18.75 18.2812V15C18.75 14.6685 18.6183 14.3505 18.3839 14.1161C18.1495 13.8817 17.8315 13.75 17.5 13.75C17.1685 13.75 16.8505 13.8817 16.6161 14.1161C16.3817 14.3505 16.25 14.6685 16.25 15V18.2812L13.125 17.2656C12.8096 17.162 12.466 17.1879 12.1698 17.3377C11.8735 17.4874 11.6489 17.7487 11.5453 18.0641C11.4417 18.3794 11.4676 18.723 11.6174 19.0193C11.7671 19.3155 12.0284 19.5401 12.3438 19.6438L15.4688 20.6578L13.5406 23.3141C13.4387 23.4465 13.3644 23.5979 13.3221 23.7595C13.2797 23.9212 13.2702 24.0896 13.294 24.255C13.3179 24.4203 13.3747 24.5792 13.461 24.7223C13.5473 24.8653 13.6614 24.9896 13.7966 25.0878C13.9317 25.186 14.0852 25.2561 14.2479 25.2939C14.4106 25.3318 14.5793 25.3366 14.7439 25.3082C14.9086 25.2798 15.0658 25.2186 15.2064 25.1284C15.347 25.0382 15.4681 24.9206 15.5625 24.7828L17.4906 22.1266L19.4187 24.7828C19.5132 24.9206 19.6342 25.0382 19.7748 25.1284C19.9154 25.2186 20.0727 25.2798 20.2373 25.3082C20.402 25.3366 20.5706 25.3318 20.7333 25.2939C20.896 25.2561 21.0495 25.186 21.1847 25.0878C21.3199 24.9896 21.434 24.8653 21.5203 24.7223C21.6066 24.5792 21.6634 24.4203 21.6872 24.255C21.7111 24.0896 21.7016 23.9212 21.6592 23.7595C21.6168 23.5979 21.5425 23.4465 21.4406 23.3141L19.5125 20.6578L22.6375 19.6438C22.9389 19.5316 23.1855 19.3076 23.3261 19.0184C23.4666 18.7291 23.4902 18.3968 23.392 18.0905C23.2938 17.7843 23.0814 17.5276 22.7988 17.374C22.5163 17.2204 22.1854 17.1816 21.875 17.2656ZM38.4375 18.0688C38.3351 17.7563 38.1136 17.4967 37.8211 17.3464C37.5287 17.1961 37.1887 17.1671 36.875 17.2656L33.75 18.2812V15C33.75 14.6685 33.6183 14.3505 33.3839 14.1161C33.1495 13.8817 32.8315 13.75 32.5 13.75C32.1685 13.75 31.8505 13.8817 31.6161 14.1161C31.3817 14.3505 31.25 14.6685 31.25 15V18.2812L28.125 17.2672C27.8096 17.1646 27.4665 17.1915 27.1709 17.342C26.8754 17.4925 26.6518 17.7542 26.5492 18.0695C26.4467 18.3849 26.4736 18.7281 26.624 19.0236C26.7745 19.3191 27.0362 19.5427 27.3516 19.6453L30.4766 20.6594L28.5484 23.3156C28.4465 23.448 28.3722 23.5995 28.3299 23.7611C28.2875 23.9227 28.278 24.0912 28.3018 24.2565C28.3257 24.4219 28.3825 24.5808 28.4688 24.7238C28.5551 24.8669 28.6692 24.9911 28.8044 25.0893C28.9395 25.1875 29.093 25.2576 29.2557 25.2955C29.4185 25.3333 29.5871 25.3382 29.7517 25.3098C29.9164 25.2813 30.0736 25.2202 30.2142 25.13C30.3548 25.0397 30.4759 24.9222 30.5703 24.7844L32.4984 22.1281L34.4266 24.7844C34.521 24.9222 34.6421 25.0397 34.7826 25.13C34.9232 25.2202 35.0805 25.2813 35.2451 25.3098C35.4098 25.3382 35.5784 25.3333 35.7411 25.2955C35.9039 25.2576 36.0573 25.1875 36.1925 25.0893C36.3277 24.9911 36.4418 24.8669 36.5281 24.7238C36.6144 24.5808 36.6712 24.4219 36.695 24.2565C36.7189 24.0912 36.7094 23.9227 36.667 23.7611C36.6247 23.5995 36.5503 23.448 36.4484 23.3156L34.5203 20.6594L37.6453 19.6453C37.959 19.5408 38.2186 19.3161 38.367 19.0207C38.5155 18.7252 38.5409 18.3829 38.4375 18.0688Z" fill="#7a7b9f"/>
</svg>
