<svg width="40" height="40" viewBox="0 0 40 40" fill="none" xmlns="http://www.w3.org/2000/svg">
<path d="M35.5188 11.4642L28.5359 4.48292C28.3038 4.25072 28.0282 4.06652 27.7248 3.94084C27.4215 3.81517 27.0963 3.75049 26.768 3.75049C26.4396 3.75049 26.1145 3.81517 25.8111 3.94084C25.5078 4.06652 25.2322 4.25072 25 4.48292L5.73282 23.7501C5.49967 23.9814 5.31481 24.2568 5.18901 24.5601C5.06321 24.8635 4.99896 25.1889 5.00001 25.5173V32.5001C5.00001 33.1632 5.2634 33.799 5.73225 34.2679C6.20109 34.7367 6.83697 35.0001 7.50001 35.0001H33.75C34.0815 35.0001 34.3995 34.8684 34.6339 34.634C34.8683 34.3996 35 34.0816 35 33.7501C35 33.4186 34.8683 33.1007 34.6339 32.8662C34.3995 32.6318 34.0815 32.5001 33.75 32.5001H18.0188L35.5188 15.0001C35.751 14.768 35.9352 14.4923 36.0608 14.189C36.1865 13.8856 36.2512 13.5605 36.2512 13.2321C36.2512 12.9038 36.1865 12.5787 36.0608 12.2753C35.9352 11.972 35.751 11.6963 35.5188 11.4642ZM14.4828 32.5001H7.50001V25.5173L21.25 11.7673L28.2328 18.7501L14.4828 32.5001ZM30 16.9829L23.0188 10.0001L26.7688 6.25011L33.75 13.2329L30 16.9829Z" fill="white"/>
</svg>
