<svg width="40" height="40" viewBox="0 0 40 40" fill="none" xmlns="http://www.w3.org/2000/svg">
<path d="M35 20C35 20.3315 34.8683 20.6495 34.6339 20.8839C34.3995 21.1183 34.0815 21.25 33.75 21.25H21.25V33.75C21.25 34.0815 21.1183 34.3995 20.8839 34.6339C20.6495 34.8683 20.3315 35 20 35C19.6685 35 19.3505 34.8683 19.1161 34.6339C18.8817 34.3995 18.75 34.0815 18.75 33.75V21.25H6.25C5.91848 21.25 5.60054 21.1183 5.36612 20.8839C5.1317 20.6495 5 20.3315 5 20C5 19.6685 5.1317 19.3505 5.36612 19.1161C5.60054 18.8817 5.91848 18.75 6.25 18.75H18.75V6.25C18.75 5.91848 18.8817 5.60054 19.1161 5.36612C19.3505 5.1317 19.6685 5 20 5C20.3315 5 20.6495 5.1317 20.8839 5.36612C21.1183 5.60054 21.25 5.91848 21.25 6.25V18.75H33.75C34.0815 18.75 34.3995 18.8817 34.6339 19.1161C34.8683 19.3505 35 19.6685 35 20Z" fill="white"/>
</svg>
