<svg width="40" height="40" viewBox="0 0 40 40" fill="none" xmlns="http://www.w3.org/2000/svg">
<path d="M35.8625 11.5953C35.7157 11.4573 35.5378 11.3568 35.3438 11.3024C35.1498 11.2479 34.9456 11.2412 34.7484 11.2828C34.5057 10.4102 34.093 9.59424 33.534 8.88169C32.9749 8.16914 32.2806 7.57406 31.4909 7.13065C30.7012 6.68723 29.8317 6.40421 28.9323 6.29786C28.0329 6.1915 27.1213 6.2639 26.25 6.51089C25.7016 5.31412 24.8211 4.29997 23.7131 3.58897C22.6052 2.87796 21.3164 2.5 20 2.5C18.6836 2.5 17.3948 2.87796 16.2869 3.58897C15.1789 4.29997 14.2984 5.31412 13.75 6.51089C12.8789 6.26358 11.9675 6.1908 11.0681 6.29674C10.1688 6.40268 9.29922 6.68525 8.5094 7.12822C7.71958 7.57118 7.02505 8.16582 6.4657 8.87798C5.90636 9.59014 5.49321 10.4058 5.25 11.2781C5.04466 11.2359 4.83202 11.2461 4.63164 11.3077C4.43126 11.3692 4.24958 11.4802 4.10331 11.6304C3.95705 11.7805 3.85089 11.965 3.79461 12.167C3.73833 12.3689 3.73374 12.5817 3.78125 12.7859L8.55625 33.0734C8.68551 33.6219 8.99628 34.1106 9.43816 34.4603C9.88004 34.81 10.4271 35.0002 10.9906 35H29.0094C29.5729 35.0002 30.12 34.81 30.5618 34.4603C31.0037 34.1106 31.3145 33.6219 31.4437 33.0734L36.2172 12.7859C36.267 12.5737 36.2604 12.3522 36.1982 12.1434C36.136 11.9345 36.0203 11.7456 35.8625 11.5953ZM11.875 8.74995C12.5894 8.74796 13.2932 8.92296 13.9234 9.25933C14.0936 9.34958 14.2823 9.39929 14.4748 9.40459C14.6674 9.40988 14.8585 9.3706 15.0334 9.28983C15.2082 9.20906 15.362 9.08898 15.4828 8.93895C15.6036 8.78893 15.6881 8.61302 15.7297 8.42495C15.9461 7.45374 16.487 6.58529 17.2634 5.96289C18.0397 5.34048 19.005 5.0013 20 5.0013C20.995 5.0013 21.9603 5.34048 22.7367 5.96289C23.513 6.58529 24.0539 7.45374 24.2703 8.42495C24.3119 8.61302 24.3964 8.78893 24.5172 8.93895C24.638 9.08898 24.7918 9.20906 24.9666 9.28983C25.1415 9.3706 25.3326 9.40988 25.5252 9.40459C25.7177 9.39929 25.9064 9.34958 26.0766 9.25933C26.6552 8.95241 27.2953 8.77932 27.9497 8.75283C28.6042 8.72634 29.2562 8.84712 29.8577 9.10626C30.4592 9.3654 30.9949 9.7563 31.4252 10.2501C31.8554 10.7439 32.1694 11.328 32.3437 11.9593L26.3187 13.6781L20.9297 11.5218C20.3339 11.2836 19.6693 11.2836 19.0734 11.5218L13.6828 13.6812L7.65625 11.9593C7.91136 11.0364 8.46219 10.2227 9.22424 9.64299C9.9863 9.06326 10.9175 8.74954 11.875 8.74995ZM10.9906 32.5L6.70469 14.2875L12.6188 15.9765L14.8219 32.5H10.9906ZM22.6562 32.5H17.3438L15.1172 15.8L20 13.8468L24.8828 15.8L22.6562 32.5ZM29.0094 32.5H25.1781L27.3813 15.9765L33.2953 14.2875L29.0094 32.5Z" fill="white"/>
</svg>
