<svg width="40" height="40" viewBox="0 0 40 40" fill="none" xmlns="http://www.w3.org/2000/svg">
<path d="M18.75 33.75C18.75 34.0815 18.6183 34.3995 18.3839 34.6339C18.1495 34.8683 17.8315 35 17.5 35H7.5C7.16848 35 6.85054 34.8683 6.61612 34.6339C6.3817 34.3995 6.25 34.0815 6.25 33.75V6.25C6.25 5.91848 6.3817 5.60054 6.61612 5.36612C6.85054 5.1317 7.16848 5 7.5 5H17.5C17.8315 5 18.1495 5.1317 18.3839 5.36612C18.6183 5.60054 18.75 5.91848 18.75 6.25C18.75 6.58152 18.6183 6.89946 18.3839 7.13388C18.1495 7.3683 17.8315 7.5 17.5 7.5H8.75V32.5H17.5C17.8315 32.5 18.1495 32.6317 18.3839 32.8661C18.6183 33.1005 18.75 33.4185 18.75 33.75ZM35.8844 19.1156L29.6344 12.8656C29.3998 12.6311 29.0817 12.4993 28.75 12.4993C28.4183 12.4993 28.1002 12.6311 27.8656 12.8656C27.6311 13.1002 27.4993 13.4183 27.4993 13.75C27.4993 14.0817 27.6311 14.3998 27.8656 14.6344L31.9828 18.75H17.5C17.1685 18.75 16.8505 18.8817 16.6161 19.1161C16.3817 19.3505 16.25 19.6685 16.25 20C16.25 20.3315 16.3817 20.6495 16.6161 20.8839C16.8505 21.1183 17.1685 21.25 17.5 21.25H31.9828L27.8656 25.3656C27.6311 25.6002 27.4993 25.9183 27.4993 26.25C27.4993 26.5817 27.6311 26.8998 27.8656 27.1344C28.1002 27.3689 28.4183 27.5007 28.75 27.5007C29.0817 27.5007 29.3998 27.3689 29.6344 27.1344L35.8844 20.8844C36.0006 20.7683 36.0928 20.6304 36.1557 20.4787C36.2186 20.3269 36.251 20.1643 36.251 20C36.251 19.8357 36.2186 19.6731 36.1557 19.5213C36.0928 19.3696 36.0006 19.2317 35.8844 19.1156Z" fill="white"/>
</svg>
