<svg width="40" height="40" viewBox="0 0 40 40" fill="none" xmlns="http://www.w3.org/2000/svg">
<path d="M38.0172 21.25L22.5 5.73282C22.2687 5.49967 21.9934 5.31481 21.69 5.18901C21.3866 5.06321 21.0613 4.99896 20.7328 5.00001H6.25001C5.91849 5.00001 5.60055 5.13171 5.36613 5.36613C5.13171 5.60055 5.00001 5.91849 5.00001 6.25001V20.7328C4.99896 21.0613 5.06321 21.3866 5.18901 21.69C5.31481 21.9934 5.49967 22.2687 5.73282 22.5L21.25 38.0172C21.4822 38.2494 21.7578 38.4336 22.0611 38.5593C22.3645 38.685 22.6896 38.7496 23.018 38.7496C23.3463 38.7496 23.6715 38.685 23.9748 38.5593C24.2782 38.4336 24.5538 38.2494 24.786 38.0172L38.0172 24.786C38.2494 24.5538 38.4336 24.2782 38.5593 23.9748C38.685 23.6715 38.7496 23.3463 38.7496 23.018C38.7496 22.6896 38.685 22.3645 38.5593 22.0611C38.4336 21.7578 38.2494 21.4822 38.0172 21.25ZM23.0172 36.25L7.50001 20.7328V7.50001H20.7328L36.25 23.0172L23.0172 36.25ZM15 13.125C15 13.4959 14.89 13.8584 14.684 14.1667C14.478 14.475 14.1852 14.7154 13.8425 14.8573C13.4999 14.9992 13.1229 15.0363 12.7592 14.964C12.3955 14.8916 12.0614 14.7131 11.7992 14.4508C11.537 14.1886 11.3584 13.8545 11.286 13.4908C11.2137 13.1271 11.2508 12.7501 11.3927 12.4075C11.5347 12.0649 11.775 11.772 12.0833 11.566C12.3917 11.36 12.7542 11.25 13.125 11.25C13.6223 11.25 14.0992 11.4476 14.4508 11.7992C14.8025 12.1508 15 12.6277 15 13.125Z" fill="#7a7b9f"/>
</svg>
