<svg width="40" height="40" viewBox="0 0 40 40" fill="none" xmlns="http://www.w3.org/2000/svg">
<path d="M35 22.5V32.5C35 32.8315 34.8683 33.1495 34.6339 33.3839C34.3995 33.6183 34.0815 33.75 33.75 33.75H6.25C5.91848 33.75 5.60054 33.6183 5.36612 33.3839C5.1317 33.1495 5 32.8315 5 32.5V22.5C5 22.1685 5.1317 21.8505 5.36612 21.6161C5.60054 21.3817 5.91848 21.25 6.25 21.25C6.58152 21.25 6.89946 21.3817 7.13388 21.6161C7.3683 21.8505 7.5 22.1685 7.5 22.5V31.25H32.5V22.5C32.5 22.1685 32.6317 21.8505 32.8661 21.6161C33.1005 21.3817 33.4185 21.25 33.75 21.25C34.0815 21.25 34.3995 21.3817 34.6339 21.6161C34.8683 21.8505 35 22.1685 35 22.5ZM14.6344 12.1344L18.75 8.01719V22.5C18.75 22.8315 18.8817 23.1495 19.1161 23.3839C19.3505 23.6183 19.6685 23.75 20 23.75C20.3315 23.75 20.6495 23.6183 20.8839 23.3839C21.1183 23.1495 21.25 22.8315 21.25 22.5V8.01719L25.3656 12.1344C25.6002 12.3689 25.9183 12.5007 26.25 12.5007C26.5817 12.5007 26.8998 12.3689 27.1344 12.1344C27.3689 11.8998 27.5007 11.5817 27.5007 11.25C27.5007 10.9183 27.3689 10.6002 27.1344 10.3656L20.8844 4.11563C20.7683 3.99941 20.6304 3.90721 20.4787 3.84431C20.3269 3.7814 20.1643 3.74902 20 3.74902C19.8357 3.74902 19.6731 3.7814 19.5213 3.84431C19.3696 3.90721 19.2317 3.99941 19.1156 4.11563L12.8656 10.3656C12.6311 10.6002 12.4993 10.9183 12.4993 11.25C12.4993 11.5817 12.6311 11.8998 12.8656 12.1344C13.1002 12.3689 13.4183 12.5007 13.75 12.5007C14.0817 12.5007 14.3998 12.3689 14.6344 12.1344Z" fill="#A85FDD"/>
</svg>
