<svg width="40" height="40" viewBox="0 0 40 40" fill="none" xmlns="http://www.w3.org/2000/svg">
<path d="M36.0812 33.1251C33.7016 29.011 30.0344 26.061 25.7547 24.6626C27.8716 23.4024 29.5163 21.4821 30.4363 19.1967C31.3562 16.9112 31.5005 14.387 30.847 12.0116C30.1934 9.63621 28.7782 7.54103 26.8187 6.0478C24.8592 4.55456 22.4636 3.74585 20 3.74585C17.5364 3.74585 15.1408 4.55456 13.1813 6.0478C11.2217 7.54103 9.80655 9.63621 9.15303 12.0116C8.4995 14.387 8.64379 16.9112 9.56373 19.1967C10.4837 21.4821 12.1284 23.4024 14.2453 24.6626C9.96562 26.0595 6.29843 29.0095 3.91875 33.1251C3.83148 33.2674 3.77359 33.4257 3.74851 33.5908C3.72342 33.7558 3.73165 33.9242 3.77269 34.086C3.81373 34.2478 3.88677 34.3997 3.98748 34.5328C4.0882 34.6659 4.21455 34.7775 4.3591 34.861C4.50364 34.9445 4.66344 34.9982 4.82907 35.0189C4.9947 35.0397 5.16281 35.027 5.32347 34.9817C5.48413 34.9364 5.63409 34.8594 5.76451 34.7552C5.89492 34.651 6.00315 34.5218 6.08281 34.3751C9.02656 29.2876 14.2297 26.2501 20 26.2501C25.7703 26.2501 30.9734 29.2876 33.9172 34.3751C33.9968 34.5218 34.1051 34.651 34.2355 34.7552C34.3659 34.8594 34.5159 34.9364 34.6765 34.9817C34.8372 35.027 35.0053 35.0397 35.1709 35.0189C35.3365 34.9982 35.4963 34.9445 35.6409 34.861C35.7854 34.7775 35.9118 34.6659 36.0125 34.5328C36.1132 34.3997 36.1863 34.2478 36.2273 34.086C36.2683 33.9242 36.2766 33.7558 36.2515 33.5908C36.2264 33.4257 36.1685 33.2674 36.0812 33.1251ZM11.25 15.0001C11.25 13.2695 11.7632 11.5778 12.7246 10.1389C13.6861 8.69993 15.0527 7.57842 16.6515 6.91615C18.2504 6.25389 20.0097 6.08061 21.707 6.41823C23.4044 6.75585 24.9635 7.58921 26.1872 8.81292C27.4109 10.0366 28.2442 11.5957 28.5819 13.2931C28.9195 14.9904 28.7462 16.7497 28.0839 18.3486C27.4217 19.9474 26.3002 21.314 24.8612 22.2755C23.4223 23.2369 21.7306 23.7501 20 23.7501C17.6801 23.7476 15.456 22.825 13.8156 21.1845C12.1751 19.5441 11.2525 17.32 11.25 15.0001Z" fill="#7a7b9f"/>
</svg>
