<svg width="40" height="40" viewBox="0 0 40 40" fill="none" xmlns="http://www.w3.org/2000/svg">
<path d="M20 3.75C16.7861 3.75 13.6443 4.70305 10.972 6.48862C8.29969 8.27419 6.21689 10.8121 4.98696 13.7814C3.75704 16.7507 3.43524 20.018 4.06225 23.1702C4.68926 26.3224 6.23692 29.2179 8.50952 31.4905C10.7821 33.7631 13.6776 35.3107 16.8298 35.9378C19.982 36.5648 23.2493 36.243 26.2186 35.013C29.1879 33.7831 31.7258 31.7003 33.5114 29.028C35.297 26.3557 36.25 23.2139 36.25 20C36.2455 15.6916 34.5319 11.561 31.4855 8.51454C28.439 5.46806 24.3084 3.75455 20 3.75ZM25.8844 24.1156C26.0005 24.2318 26.0926 24.3696 26.1555 24.5214C26.2184 24.6731 26.2507 24.8358 26.2507 25C26.2507 25.1642 26.2184 25.3269 26.1555 25.4786C26.0926 25.6304 26.0005 25.7682 25.8844 25.8844C25.7682 26.0005 25.6304 26.0926 25.4786 26.1555C25.3269 26.2183 25.1643 26.2507 25 26.2507C24.8358 26.2507 24.6731 26.2183 24.5214 26.1555C24.3696 26.0926 24.2318 26.0005 24.1156 25.8844L20 21.7672L15.8844 25.8844C15.7682 26.0005 15.6304 26.0926 15.4786 26.1555C15.3269 26.2183 15.1643 26.2507 15 26.2507C14.8358 26.2507 14.6731 26.2183 14.5214 26.1555C14.3696 26.0926 14.2318 26.0005 14.1156 25.8844C13.9995 25.7682 13.9074 25.6304 13.8445 25.4786C13.7817 25.3269 13.7493 25.1642 13.7493 25C13.7493 24.8358 13.7817 24.6731 13.8445 24.5214C13.9074 24.3696 13.9995 24.2318 14.1156 24.1156L18.2328 20L14.1156 15.8844C13.8811 15.6498 13.7493 15.3317 13.7493 15C13.7493 14.6683 13.8811 14.3502 14.1156 14.1156C14.3502 13.8811 14.6683 13.7493 15 13.7493C15.3317 13.7493 15.6498 13.8811 15.8844 14.1156L20 18.2328L24.1156 14.1156C24.2318 13.9995 24.3696 13.9074 24.5214 13.8445C24.6731 13.7817 24.8358 13.7493 25 13.7493C25.1643 13.7493 25.3269 13.7817 25.4786 13.8445C25.6304 13.9074 25.7682 13.9995 25.8844 14.1156C26.0005 14.2318 26.0926 14.3696 26.1555 14.5214C26.2184 14.6731 26.2507 14.8358 26.2507 15C26.2507 15.1642 26.2184 15.3269 26.1555 15.4786C26.0926 15.6304 26.0005 15.7682 25.8844 15.8844L21.7672 20L25.8844 24.1156Z" fill="white"/>
</svg>
